<svg width="64" height="64" viewBox="0 0 64 64" fill="none" xmlns="http://www.w3.org/2000/svg">
<path d="M39.9987 21.3333C39.9987 13.9695 34.0291 8 26.6654 8C19.3016 8 13.332 13.9695 13.332 21.3333C13.332 28.6971 19.3016 34.6667 26.6654 34.6667C34.0291 34.6667 39.9987 28.6971 39.9987 21.3333Z" stroke="#F6891F" stroke-width="4" stroke-linecap="round" stroke-linejoin="round"/>
<path d="M8 53.3334C8 43.0241 16.3574 34.6667 26.6667 34.6667C30.0667 34.6667 33.2544 35.5758 36 37.1641" stroke="#F6891F" stroke-width="4" stroke-linecap="round" stroke-linejoin="round"/>
<path d="M48.278 38.6813L49.9204 41.9933C50.1444 42.4543 50.7417 42.8965 51.2454 42.9813L54.2225 43.4799C56.1262 43.7999 56.5742 45.1925 55.2025 46.5663L52.8881 48.8997C52.4961 49.2949 52.2814 50.0573 52.4028 50.6029L53.0654 53.4917C53.5881 55.7781 52.3841 56.6626 50.3777 55.4677L47.5873 53.8021C47.0833 53.501 46.2529 53.501 45.7396 53.8021L42.9492 55.4677C40.9521 56.6626 39.7388 55.7687 40.2614 53.4917L40.9241 50.6029C41.0454 50.0573 40.8308 49.2949 40.4388 48.8997L38.1244 46.5663C36.7617 45.1925 37.2004 43.7999 39.1044 43.4799L42.0812 42.9813C42.5758 42.8965 43.1732 42.4543 43.3972 41.9933L45.0396 38.6813C45.9356 36.8839 47.3913 36.8839 48.278 38.6813Z" stroke="#F6891F" stroke-width="4" stroke-linecap="round" stroke-linejoin="round"/>
</svg>
